#tb 0: 1/44100
#media_type 0: audio
#codec_id 0: pcm_s16le
#sample_rate 0: 44100
#channel_layout_name 0: stereo
0,          0,          0,      682,     2728, 0xaf365458
0,        682,        682,      682,     2728, 0xcd684898
0,       1364,       1364,      682,     2728, 0x5d514ae5
0,       2046,       2046,      682,     2728, 0x48cb4605
0,       2728,       2728,      682,     2728, 0x76ac43ee
0,       3410,       3410,      682,     2728, 0x088355fa
0,       4092,       4092,      682,     2728, 0xf66f4efa
0,       4774,       4774,      682,     2728, 0x7efc3b1a
0,       5456,       5456,      682,     2728, 0x1c1745f3
0,       6138,       6138,      682,     2728, 0x824d50fe
0,       6820,       6820,      682,     2728, 0xb26c5b94
0,       7502,       7502,      682,     2728, 0x02d5636d
0,       8184,       8184,      682,     2728, 0x65e647de
0,       8866,       8866,      682,     2728, 0x93374812
0,       9548,       9548,      682,     2728, 0xa0d55153
0,      10230,      10230,      682,     2728, 0x56cf392c
0,      10912,      10912,      682,     2728, 0x554051c3
0,      11594,      11594,      682,     2728, 0xbc3655ce
0,      12276,      12276,      682,     2728, 0xb432529f
0,      12958,      12958,      682,     2728, 0x64df52a7
